<svg xmlns="http://www.w3.org/2000/svg" version="1.1" xmlns:xlink="http://www.w3.org/1999/xlink" xmlns:svgjs="http://svgjs.com/svgjs" width="1920" height="560" preserveAspectRatio="none" viewBox="0 0 1920 560"><g mask="url(&quot;#SvgjsMask1057&quot;)" fill="none"><rect width="1920" height="560" x="0" y="0" fill="rgba(246, 106, 20, 0.05)"></rect><path d="M0,487.721C103.857,494.921,212.8,522.638,305.759,475.77C401.949,427.273,470.518,332.952,507.584,231.806C543.251,134.478,526.198,28.96,506.814,-72.869C488.18,-170.758,465.334,-271.422,397.835,-344.726C331.254,-417.033,230.26,-436.669,138.76,-472.573C37.736,-512.214,-67.805,-611.816,-166.209,-566.056C-268.516,-518.481,-255.793,-366.357,-306.45,-265.54C-342.282,-194.227,-400.573,-137.765,-420.269,-60.425C-441.576,23.24,-446.87,110.259,-423.308,193.318C-397.19,285.39,-358.248,380.541,-279.677,435.186C-200.193,490.466,-96.585,481.025,0,487.721" fill="rgba(208, 84, 8, 0.05)"></path><path d="M1920 1040.993C2017.045 1041.4180000000001 2119.726 1050.261 2202.137 999.0129999999999 2284.985 947.4929999999999 2338.0190000000002 857.1379999999999 2365.967 763.6659999999999 2391.906 676.913 2377.724 584.701 2351.9719999999998 497.892 2328.837 419.905 2272.006 361.803 2226.708 294.236 2174.052 215.69400000000002 2146.79 114.86500000000001 2064.251 68.72500000000002 1975.297 18.999000000000024 1862.924 4.198999999999955 1766.411 36.922000000000025 1671.05 69.25400000000002 1606.005 156.39499999999998 1553.061 242.04500000000002 1505.709 318.647 1484.503 407.004 1481.999 497.025 1479.694 579.889 1514.462 654.76 1539.382 733.822 1568.136 825.048 1565.013 936.479 1639.4470000000001 996.55 1714.652 1057.243 1823.36 1040.57 1920 1040.993" fill="rgba(248, 137, 69, 0.05)"></path></g><defs><mask id="SvgjsMask1057"><rect width="1920" height="560" fill="#ffffff"></rect></mask></defs></svg>