<svg xmlns="http://www.w3.org/2000/svg" version="1.1" xmlns:xlink="http://www.w3.org/1999/xlink" xmlns:svgjs="http://svgjs.com/svgjs" width="1920" height="560" preserveAspectRatio="none" viewBox="0 0 1920 560"><g mask="url(&quot;#SvgjsMask1267&quot;)" fill="none"><g transform="translate(19.2, 39.2)" stroke-linecap="round"><path d="M230 195.69 L230 225.69" stroke-width="15" stroke="rgba(246, 106, 20, 0.01)"></path><path d="M230 248.19 L230 308.19" stroke-width="15" stroke="rgba(246, 106, 20, 0.01)"></path><path d="M230 330.69 L230 364.31" stroke-width="15" stroke="rgba(242, 74, 27, 0.05)"></path><path d="M250 79.61 L250 259.61" stroke-width="15" stroke="rgba(246, 106, 20, 0.01)"></path><path d="M250 282.11 L250 357.11" stroke-width="15" stroke="rgba(246, 106, 20, 0.01)"></path><path d="M250 379.61 L250 480.39" stroke-width="15" stroke="rgba(242, 74, 27, 0.05)"></path><path d="M270 167.38 L270 182.38" stroke-width="15" stroke="rgba(242, 74, 27, 0.05)"></path><path d="M270 204.88 L270 392.63" stroke-width="15" stroke="rgba(246, 106, 20, 0.01)"></path><path d="M290 156.97 L290 321.97" stroke-width="15" stroke="rgba(246, 106, 20, 0.01)"></path><path d="M290 344.47 L290 359.47" stroke-width="15" stroke="rgba(242, 74, 27, 0.05)"></path><path d="M290 381.97 L290 403.03" stroke-width="15" stroke="rgba(246, 106, 20, 0.01)"></path><path d="M310 227.76 L310 332.24" stroke-width="15" stroke="rgba(242, 74, 27, 0.05)"></path><path d="M330 191.72 L330 251.72" stroke-width="15" stroke="rgba(246, 106, 20, 0.01)"></path><path d="M330 274.22 L330 304.22" stroke-width="15" stroke="rgba(242, 74, 27, 0.05)"></path><path d="M330 326.72 L330 368.28" stroke-width="15" stroke="rgba(246, 106, 20, 0.01)"></path><path d="M350 132.59 L350 267.59000000000003" stroke-width="15" stroke="rgba(246, 106, 20, 0.01)"></path><path d="M350 290.09000000000003 L350 427.41" stroke-width="15" stroke="rgba(242, 74, 27, 0.05)"></path><path d="M370 94.47 L370 139.47" stroke-width="15" stroke="rgba(242, 74, 27, 0.05)"></path><path d="M370 161.97 L370 465.52" stroke-width="15" stroke="rgba(246, 106, 20, 0.01)"></path><path d="M390 133.22 L390 426.78" stroke-width="15" stroke="rgba(246, 106, 20, 0.01)"></path><path d="M410 177.96 L410 297.96000000000004" stroke-width="15" stroke="rgba(246, 106, 20, 0.01)"></path><path d="M410 320.46000000000004 L410 335.46000000000004" stroke-width="15" stroke="rgba(246, 106, 20, 0.01)"></path><path d="M410 357.96000000000004 L410 382.04" stroke-width="15" stroke="rgba(246, 106, 20, 0.01)"></path><path d="M430 136.22 L430 376.22" stroke-width="15" stroke="rgba(246, 106, 20, 0.01)"></path><path d="M430 398.72 L430 423.78" stroke-width="15" stroke="rgba(242, 74, 27, 0.05)"></path><path d="M450 209.22 L450 254.22" stroke-width="15" stroke="rgba(246, 106, 20, 0.01)"></path><path d="M450 276.72 L450 291.72" stroke-width="15" stroke="rgba(246, 106, 20, 0.01)"></path><path d="M450 314.22 L450 350.78" stroke-width="15" stroke="rgba(246, 106, 20, 0.01)"></path><path d="M470 96.51 L470 186.51" stroke-width="15" stroke="rgba(242, 74, 27, 0.05)"></path><path d="M470 209.01 L470 284.01" stroke-width="15" stroke="rgba(242, 74, 27, 0.05)"></path><path d="M470 306.51 L470 463.49" stroke-width="15" stroke="rgba(242, 74, 27, 0.05)"></path><path d="M490 172.49 L490 232.49" stroke-width="15" stroke="rgba(242, 74, 27, 0.05)"></path><path d="M490 254.99 L490 269.99" stroke-width="15" stroke="rgba(242, 74, 27, 0.05)"></path><path d="M490 292.49 L490 387.51" stroke-width="15" stroke="rgba(242, 74, 27, 0.05)"></path><path d="M510 191.39 L510 206.39" stroke-width="15" stroke="rgba(246, 106, 20, 0.01)"></path><path d="M510 228.89 L510 303.89" stroke-width="15" stroke="rgba(246, 106, 20, 0.01)"></path><path d="M510 326.39 L510 368.61" stroke-width="15" stroke="rgba(246, 106, 20, 0.01)"></path><path d="M530 207.59 L530 252.59" stroke-width="15" stroke="rgba(246, 106, 20, 0.01)"></path><path d="M530 275.09000000000003 L530 290.09000000000003" stroke-width="15" stroke="rgba(242, 74, 27, 0.05)"></path><path d="M530 312.59000000000003 L530 352.4" stroke-width="15" stroke="rgba(242, 74, 27, 0.05)"></path><path d="M550 222.13 L550 337.87" stroke-width="15" stroke="rgba(246, 106, 20, 0.01)"></path><path d="M570 193.03 L570 208.03" stroke-width="15" stroke="rgba(246, 106, 20, 0.01)"></path><path d="M570 230.53 L570 320.53" stroke-width="15" stroke="rgba(246, 106, 20, 0.01)"></path><path d="M570 343.03 L570 366.97" stroke-width="15" stroke="rgba(242, 74, 27, 0.05)"></path><path d="M590 158.06 L590 293.06" stroke-width="15" stroke="rgba(242, 74, 27, 0.05)"></path><path d="M590 315.56 L590 401.94" stroke-width="15" stroke="rgba(242, 74, 27, 0.05)"></path><path d="M610 256.3 L610 303.7" stroke-width="15" stroke="rgba(242, 74, 27, 0.05)"></path><path d="M630 179.34 L630 239.34" stroke-width="15" stroke="rgba(242, 74, 27, 0.05)"></path><path d="M630 261.84000000000003 L630 321.84000000000003" stroke-width="15" stroke="rgba(242, 74, 27, 0.05)"></path><path d="M630 344.34000000000003 L630 380.65" stroke-width="15" stroke="rgba(246, 106, 20, 0.01)"></path><path d="M650 125.41 L650 290.40999999999997" stroke-width="15" stroke="rgba(246, 106, 20, 0.01)"></path><path d="M650 312.90999999999997 L650 327.90999999999997" stroke-width="15" stroke="rgba(246, 106, 20, 0.01)"></path><path d="M650 350.40999999999997 L650 434.59" stroke-width="15" stroke="rgba(242, 74, 27, 0.05)"></path><path d="M670 176.38 L670 221.38" stroke-width="15" stroke="rgba(242, 74, 27, 0.05)"></path><path d="M670 243.88 L670 333.88" stroke-width="15" stroke="rgba(242, 74, 27, 0.05)"></path><path d="M670 356.38 L670 383.62" stroke-width="15" stroke="rgba(246, 106, 20, 0.01)"></path><path d="M690 77.54 L690 422.54" stroke-width="15" stroke="rgba(246, 106, 20, 0.01)"></path><path d="M690 445.04 L690 482.46" stroke-width="15" stroke="rgba(242, 74, 27, 0.05)"></path><path d="M710 76.59 L710 286.59000000000003" stroke-width="15" stroke="rgba(246, 106, 20, 0.01)"></path><path d="M710 309.09000000000003 L710 483.41" stroke-width="15" stroke="rgba(246, 106, 20, 0.01)"></path><path d="M730 206.43 L730 251.43" stroke-width="15" stroke="rgba(246, 106, 20, 0.01)"></path><path d="M730 273.93 L730 353.57" stroke-width="15" stroke="rgba(246, 106, 20, 0.01)"></path><path d="M750 175.31 L750 265.31" stroke-width="15" stroke="rgba(242, 74, 27, 0.05)"></path><path d="M750 287.81 L750 332.81" stroke-width="15" stroke="rgba(242, 74, 27, 0.05)"></path><path d="M750 355.31 L750 384.69" stroke-width="15" stroke="rgba(246, 106, 20, 0.01)"></path><path d="M770 156.79 L770 171.79" stroke-width="15" stroke="rgba(242, 74, 27, 0.05)"></path><path d="M770 194.29 L770 403.21" stroke-width="15" stroke="rgba(246, 106, 20, 0.01)"></path><path d="M790 144.1 L790 415.89" stroke-width="15" stroke="rgba(242, 74, 27, 0.05)"></path><path d="M810 86.34 L810 473.66" stroke-width="15" stroke="rgba(242, 74, 27, 0.05)"></path><path d="M830 99.14 L830 264.14" stroke-width="15" stroke="rgba(246, 106, 20, 0.01)"></path><path d="M830 286.64 L830 406.64" stroke-width="15" stroke="rgba(246, 106, 20, 0.01)"></path><path d="M830 429.14 L830 460.86" stroke-width="15" stroke="rgba(246, 106, 20, 0.01)"></path><path d="M850 265.65 L850 294.35" stroke-width="15" stroke="rgba(242, 74, 27, 0.05)"></path><path d="M870 213.33 L870 346.67" stroke-width="15" stroke="rgba(246, 106, 20, 0.01)"></path><path d="M890 172.19 L890 307.19" stroke-width="15" stroke="rgba(246, 106, 20, 0.01)"></path><path d="M890 329.69 L890 344.69" stroke-width="15" stroke="rgba(242, 74, 27, 0.05)"></path><path d="M890 367.19 L890 387.81" stroke-width="15" stroke="rgba(246, 106, 20, 0.01)"></path><path d="M910 157.75 L910 322.75" stroke-width="15" stroke="rgba(246, 106, 20, 0.01)"></path><path d="M910 345.25 L910 360.25" stroke-width="15" stroke="rgba(242, 74, 27, 0.05)"></path><path d="M910 382.75 L910 402.25" stroke-width="15" stroke="rgba(246, 106, 20, 0.01)"></path><path d="M930 70.91 L930 340.90999999999997" stroke-width="15" stroke="rgba(242, 74, 27, 0.05)"></path><path d="M930 363.40999999999997 L930 489.09" stroke-width="15" stroke="rgba(246, 106, 20, 0.01)"></path><path d="M950 211.25 L950 348.75" stroke-width="15" stroke="rgba(246, 106, 20, 0.01)"></path><path d="M970 149.4 L970 224.4" stroke-width="15" stroke="rgba(246, 106, 20, 0.01)"></path><path d="M970 246.9 L970 321.9" stroke-width="15" stroke="rgba(246, 106, 20, 0.01)"></path><path d="M970 344.4 L970 410.61" stroke-width="15" stroke="rgba(246, 106, 20, 0.01)"></path><path d="M990 178.92 L990 223.92" stroke-width="15" stroke="rgba(242, 74, 27, 0.05)"></path><path d="M990 246.42 L990 306.41999999999996" stroke-width="15" stroke="rgba(246, 106, 20, 0.01)"></path><path d="M990 328.91999999999996 L990 381.08" stroke-width="15" stroke="rgba(242, 74, 27, 0.05)"></path><path d="M1010 232.74 L1010 247.74" stroke-width="15" stroke="rgba(242, 74, 27, 0.05)"></path><path d="M1010 270.24 L1010 285.24" stroke-width="15" stroke="rgba(242, 74, 27, 0.05)"></path><path d="M1010 307.74 L1010 327.26" stroke-width="15" stroke="rgba(246, 106, 20, 0.01)"></path><path d="M1030 82.44 L1030 127.44" stroke-width="15" stroke="rgba(246, 106, 20, 0.01)"></path><path d="M1030 149.94 L1030 404.94" stroke-width="15" stroke="rgba(246, 106, 20, 0.01)"></path><path d="M1030 427.44 L1030 477.56" stroke-width="15" stroke="rgba(242, 74, 27, 0.05)"></path><path d="M1050 250.8 L1050 309.2" stroke-width="15" stroke="rgba(246, 106, 20, 0.01)"></path><path d="M1070 213.91 L1070 346.09" stroke-width="15" stroke="rgba(242, 74, 27, 0.05)"></path><path d="M1090 160.31 L1090 265.31" stroke-width="15" stroke="rgba(246, 106, 20, 0.01)"></path><path d="M1090 287.81 L1090 399.69" stroke-width="15" stroke="rgba(246, 106, 20, 0.01)"></path><path d="M1110 254.93 L1110 305.07" stroke-width="15" stroke="rgba(246, 106, 20, 0.01)"></path><path d="M1130 130.11 L1130 310.11" stroke-width="15" stroke="rgba(246, 106, 20, 0.01)"></path><path d="M1130 332.61 L1130 347.61" stroke-width="15" stroke="rgba(246, 106, 20, 0.01)"></path><path d="M1130 370.11 L1130 429.89" stroke-width="15" stroke="rgba(242, 74, 27, 0.05)"></path><path d="M1150 195.32 L1150 285.32" stroke-width="15" stroke="rgba(242, 74, 27, 0.05)"></path><path d="M1150 307.82 L1150 322.82" stroke-width="15" stroke="rgba(242, 74, 27, 0.05)"></path><path d="M1150 345.32 L1150 364.68" stroke-width="15" stroke="rgba(246, 106, 20, 0.01)"></path><path d="M1170 152.11 L1170 227.11" stroke-width="15" stroke="rgba(246, 106, 20, 0.01)"></path><path d="M1170 249.61 L1170 324.61" stroke-width="15" stroke="rgba(242, 74, 27, 0.05)"></path><path d="M1170 347.11 L1170 407.89" stroke-width="15" stroke="rgba(242, 74, 27, 0.05)"></path><path d="M1190 137.15 L1190 347.15" stroke-width="15" stroke="rgba(246, 106, 20, 0.01)"></path><path d="M1190 369.65 L1190 384.65" stroke-width="15" stroke="rgba(242, 74, 27, 0.05)"></path><path d="M1190 407.15 L1190 422.86" stroke-width="15" stroke="rgba(242, 74, 27, 0.05)"></path><path d="M1210 134.62 L1210 425.38" stroke-width="15" stroke="rgba(242, 74, 27, 0.05)"></path><path d="M1230 261.59000000000003 L1230 298.4" stroke-width="15" stroke="rgba(242, 74, 27, 0.05)"></path><path d="M1250 78.75 L1250 303.75" stroke-width="15" stroke="rgba(246, 106, 20, 0.01)"></path><path d="M1250 326.25 L1250 416.25" stroke-width="15" stroke="rgba(246, 106, 20, 0.01)"></path><path d="M1250 438.75 L1250 481.25" stroke-width="15" stroke="rgba(246, 106, 20, 0.01)"></path><path d="M1270 73.6 L1270 178.6" stroke-width="15" stroke="rgba(242, 74, 27, 0.05)"></path><path d="M1270 201.1 L1270 486.39" stroke-width="15" stroke="rgba(242, 74, 27, 0.05)"></path><path d="M1290 193.84 L1290 268.84000000000003" stroke-width="15" stroke="rgba(242, 74, 27, 0.05)"></path><path d="M1290 291.34000000000003 L1290 306.34000000000003" stroke-width="15" stroke="rgba(246, 106, 20, 0.01)"></path><path d="M1290 328.84000000000003 L1290 366.15" stroke-width="15" stroke="rgba(246, 106, 20, 0.01)"></path><path d="M1310 190.79 L1310 250.79" stroke-width="15" stroke="rgba(246, 106, 20, 0.01)"></path><path d="M1310 273.28999999999996 L1310 303.28999999999996" stroke-width="15" stroke="rgba(242, 74, 27, 0.05)"></path><path d="M1310 325.78999999999996 L1310 369.21" stroke-width="15" stroke="rgba(246, 106, 20, 0.01)"></path><path d="M1330 178.06 L1330 238.06" stroke-width="15" stroke="rgba(242, 74, 27, 0.05)"></path><path d="M1330 260.56 L1330 335.56" stroke-width="15" stroke="rgba(242, 74, 27, 0.05)"></path><path d="M1330 358.06 L1330 381.94" stroke-width="15" stroke="rgba(246, 106, 20, 0.01)"></path><path d="M1350 182.56 L1350 242.56" stroke-width="15" stroke="rgba(246, 106, 20, 0.01)"></path><path d="M1350 265.06 L1350 295.06" stroke-width="15" stroke="rgba(242, 74, 27, 0.05)"></path><path d="M1350 317.56 L1350 377.44" stroke-width="15" stroke="rgba(242, 74, 27, 0.05)"></path><path d="M1370 151.51 L1370 211.51" stroke-width="15" stroke="rgba(246, 106, 20, 0.01)"></path><path d="M1370 234.01 L1370 369.01" stroke-width="15" stroke="rgba(242, 74, 27, 0.05)"></path><path d="M1370 391.51 L1370 408.49" stroke-width="15" stroke="rgba(242, 74, 27, 0.05)"></path><path d="M1390 116.93 L1390 236.93" stroke-width="15" stroke="rgba(242, 74, 27, 0.05)"></path><path d="M1390 259.43 L1390 443.07" stroke-width="15" stroke="rgba(246, 106, 20, 0.01)"></path><path d="M1410 113.82 L1410 173.82" stroke-width="15" stroke="rgba(246, 106, 20, 0.01)"></path><path d="M1410 196.32 L1410 446.18" stroke-width="15" stroke="rgba(242, 74, 27, 0.05)"></path><path d="M1430 181.84 L1430 256.84000000000003" stroke-width="15" stroke="rgba(246, 106, 20, 0.01)"></path><path d="M1430 279.34000000000003 L1430 324.34000000000003" stroke-width="15" stroke="rgba(242, 74, 27, 0.05)"></path><path d="M1430 346.84000000000003 L1430 378.15" stroke-width="15" stroke="rgba(246, 106, 20, 0.01)"></path><path d="M1450 244.4 L1450 315.61" stroke-width="15" stroke="rgba(246, 106, 20, 0.01)"></path><path d="M1470 80.19 L1470 170.19" stroke-width="15" stroke="rgba(246, 106, 20, 0.01)"></path><path d="M1470 192.69 L1470 237.69" stroke-width="15" stroke="rgba(242, 74, 27, 0.05)"></path><path d="M1470 260.19 L1470 479.81" stroke-width="15" stroke="rgba(242, 74, 27, 0.05)"></path><path d="M1490 211.5 L1490 226.5" stroke-width="15" stroke="rgba(242, 74, 27, 0.05)"></path><path d="M1490 249 L1490 309" stroke-width="15" stroke="rgba(246, 106, 20, 0.01)"></path><path d="M1490 331.5 L1490 348.5" stroke-width="15" stroke="rgba(242, 74, 27, 0.05)"></path><path d="M1510 242.94 L1510 257.94" stroke-width="15" stroke="rgba(246, 106, 20, 0.01)"></path><path d="M1510 280.44 L1510 317.06" stroke-width="15" stroke="rgba(246, 106, 20, 0.01)"></path><path d="M1530 156.56 L1530 403.44" stroke-width="15" stroke="rgba(242, 74, 27, 0.05)"></path><path d="M1550 127.44 L1550 367.44" stroke-width="15" stroke="rgba(242, 74, 27, 0.05)"></path><path d="M1550 389.94 L1550 432.56" stroke-width="15" stroke="rgba(242, 74, 27, 0.05)"></path><path d="M1570 139.91 L1570 289.90999999999997" stroke-width="15" stroke="rgba(242, 74, 27, 0.05)"></path><path d="M1570 312.40999999999997 L1570 420.09" stroke-width="15" stroke="rgba(242, 74, 27, 0.05)"></path><path d="M1590 177.59 L1590 282.59000000000003" stroke-width="15" stroke="rgba(242, 74, 27, 0.05)"></path><path d="M1590 305.09000000000003 L1590 382.4" stroke-width="15" stroke="rgba(246, 106, 20, 0.01)"></path><path d="M1610 212.81 L1610 347.19" stroke-width="15" stroke="rgba(246, 106, 20, 0.01)"></path><path d="M1630 121.35 L1630 151.35" stroke-width="15" stroke="rgba(242, 74, 27, 0.05)"></path><path d="M1630 173.85 L1630 438.64" stroke-width="15" stroke="rgba(242, 74, 27, 0.05)"></path><path d="M1650 155.13 L1650 320.13" stroke-width="15" stroke="rgba(242, 74, 27, 0.05)"></path><path d="M1650 342.63 L1650 404.87" stroke-width="15" stroke="rgba(242, 74, 27, 0.05)"></path><path d="M1670 173.86 L1670 218.86" stroke-width="15" stroke="rgba(246, 106, 20, 0.01)"></path><path d="M1670 241.36 L1670 286.36" stroke-width="15" stroke="rgba(242, 74, 27, 0.05)"></path><path d="M1670 308.86 L1670 386.14" stroke-width="15" stroke="rgba(242, 74, 27, 0.05)"></path><path d="M1690 182 L1690 227" stroke-width="15" stroke="rgba(242, 74, 27, 0.05)"></path><path d="M1690 249.5 L1690 378" stroke-width="15" stroke="rgba(242, 74, 27, 0.05)"></path></g></g><defs><mask id="SvgjsMask1267"><rect width="1920" height="560" fill="#ffffff"></rect></mask></defs></svg>